<svg display="none" xmlns="http://www.w3.org/2000/svg">
  <symbol id="skills" viewBox="0 0 24 24">
    <g>
      <path d="M10,20H14V4H10V20M4,20H8V12H4V20M16,9V20H20V9H16Z" />
    </g>
  </symbol>
  <symbol id="resume" viewBox="0 0 24 24">
    <g>
      <path d="M13,9H18.5L13,3.5V9M6,2H14L20,8V20A2,2 0 0,1 18,22H6C4.89,22 4,21.1 4,20V4C4,2.89 4.89,2 6,2M15,18V16H6V18H15M18,14V12H6V14H18Z" />
    </g>
  </symbol>
  <symbol id="projects" viewBox="0 0 24 24">
    <g>
      <path d="M3,5V19H22V5H3M5,7H20V11H5V7M5,17V13H9V17H5M11,17V13H20V17H11Z" />
    </g>
  </symbol>
  <symbol id="games" viewBox="0 0 24 24">
    <g>
      <path d="M7,6H17A6,6 0 0,1 23,12A6,6 0 0,1 17,18C15.22,18 13.63,17.23 12.53,16H11.47C10.37,17.23 8.78,18 7,18A6,6 0 0,1 1,12A6,6 0 0,1 7,6M6,9V11H4V13H6V15H8V13H10V11H8V9H6M15.5,12A1.5,1.5 0 0,0 14,13.5A1.5,1.5 0 0,0 15.5,15A1.5,1.5 0 0,0 17,13.5A1.5,1.5 0 0,0 15.5,12M18.5,9A1.5,1.5 0 0,0 17,10.5A1.5,1.5 0 0,0 18.5,12A1.5,1.5 0 0,0 20,10.5A1.5,1.5 0 0,0 18.5,9Z" />
    </g>
  </symbol>
  <symbol id="experience" viewBox="0 0 24 24">
    <g>
      <path d="M16,6L18.29,8.29L13.41,13.17L9.41,9.17L2,16.59L3.41,18L9.41,12L13.41,16L19.71,9.71L22,12V6H16Z" />
    </g>
  </symbol>
  <symbol id="education" viewBox="0 0 24 24">
    <g>
      <path d="M12,3L1,9L12,15L21,10.09V17H23V9M5,13.18V17.18L12,21L19,17.18V13.18L12,17L5,13.18Z" />
    </g>
  </symbol>
  <symbol id="contact" viewBox="0 0 24 24">
    <g>
      <path d="M20,8L12,13L4,8V6L12,11L20,6M20,4H4C2.89,4 2,4.89 2,6V18A2,2 0 0,0 4,20H20A2,2 0 0,0 22,18V6C22,4.89 21.1,4 20,4Z" />
    </g>
  </symbol>
  <symbol id="blog" viewBox="0 0 24 24">
    <g>
      <path d="M20.71,7.04C21.1,6.65 21.1,6 20.71,5.63L18.37,3.29C18,2.9 17.35,2.9 16.96,3.29L15.12,5.12L18.87,8.87M3,17.25V21H6.75L17.81,9.93L14.06,6.18L3,17.25Z" />
    </g>
  </symbol>
  <symbol id="awards" viewBox="0 0 24 24">
    <g>
      <path d="M12,17.27L18.18,21L16.54,13.97L22,9.24L14.81,8.62L12,2L9.19,8.62L2,9.24L7.45,13.97L5.82,21L12,17.27Z" />
    </g>
  </symbol>
  <symbol id="about" viewBox="0 0 24 24">
    <g>
      <path d="M12,4A4,4 0 0,1 16,8A4,4 0 0,1 12,12A4,4 0 0,1 8,8A4,4 0 0,1 12,4M12,14C16.42,14 20,15.79 20,18V20H4V18C4,15.79 7.58,14 12,14Z" />
    </g>
  </symbol>
</svg>