<svg width="196" height="60" fill="none" xmlns="http://www.w3.org/2000/svg"><path fill-rule="evenodd" clip-rule="evenodd" d="M30.398 0c16.777 0 30.397 13.442 30.397 30s-13.62 30-30.398 30C13.62 60 0 46.558 0 30S13.62 0 30.398 0z" fill="#000"/><path fill-rule="evenodd" clip-rule="evenodd" d="M30.398 23.154c3.827 0 6.936 3.068 6.936 6.846s-3.109 6.846-6.936 6.846c-3.828 0-6.937-3.068-6.937-6.846s3.109-6.846 6.937-6.846z" fill="#F01F01"/><path fill-rule="evenodd" clip-rule="evenodd" d="M7.67 18.034c1.153-2.154 2.657-4.147 4.517-5.974 4.9-4.826 10.951-7.24 18.153-7.24 7.2 0 13.268 2.414 18.203 7.242 2.797 2.738 4.803 5.841 6.014 9.305.898 2.637 1.349 5.485 1.349 8.542 0 4.927-1.17 9.319-3.508 13.171a25.54 25.54 0 01-3.855 4.807c-4.935 4.863-11 7.293-18.203 7.293-2 0-3.616-.622-4.85-1.867-1.233-1.246-1.852-2.854-1.852-4.82 0-1.967.616-3.559 1.851-4.772 1.233-1.214 2.85-1.82 4.851-1.82.793 0 1.556-.067 2.295-.198 2.405-.41 4.512-1.522 6.317-3.333 2.335-2.342 3.502-5.163 3.502-8.461s-1.165-6.104-3.494-8.41c-2.33-2.31-5.158-3.465-8.484-3.465H7.67v0zm10.668 34.37c-2.18-1.147-4.2-2.642-6.059-4.485-4.925-4.882-7.387-10.886-7.387-18.01 0-1.98.633-3.58 1.892-4.799 1.263-1.219 2.889-1.83 4.881-1.83 1.993 0 3.603.611 4.833 1.83 1.186 1.18 1.8 2.71 1.84 4.595l-.002.217v22.482h.002z" fill="#fff" stroke="#fff" stroke-width=".24" stroke-miterlimit="10" stroke-linejoin="round"/><path d="M186.485 20.628c-5.251 0-9.516 4.206-9.516 9.39 0 5.182 4.263 9.392 9.516 9.392S196 35.203 196 30.019c-.003-5.182-4.265-9.391-9.515-9.391zm0 15.585c-3.464 0-6.277-2.776-6.277-6.194 0-3.419 2.813-6.195 6.277-6.195s6.276 2.776 6.276 6.195c0 3.419-2.812 6.194-6.276 6.194zm-13.767-7.539h-.003l-8.459.024a1.474 1.474 0 00-1.48 1.468c.003.807.665 1.46 1.485 1.46h.006l6.751-.018a6.473 6.473 0 01-3.358 4.096c-3.217 1.616-7.167.349-8.804-2.826-1.637-3.175-.353-7.074 2.864-8.69a6.618 6.618 0 016.695.445 1.494 1.494 0 002.063-.372 1.454 1.454 0 00-.377-2.036 9.614 9.614 0 00-9.727-.643c-4.675 2.35-6.543 8.014-4.165 12.627 1.678 3.256 5.028 5.131 8.495 5.131 1.45 0 2.921-.327 4.3-1.02 3.119-1.568 5.109-4.687 5.196-8.14a1.444 1.444 0 00-.423-1.061 1.47 1.47 0 00-1.059-.445zm-21.816 7.735H138.9c-1.404 0-2.544-1.126-2.544-2.51v-2.487h10.715c.82 0 1.485-.656 1.485-1.466 0-.809-.665-1.465-1.485-1.465h-12.197a1.472 1.472 0 00-1.485 1.466v3.951c0 2.998 2.47 5.44 5.511 5.44h12.002c.82 0 1.485-.657 1.485-1.466 0-.81-.665-1.463-1.485-1.463zm0-15.854h-16.028c-.82 0-1.485.657-1.485 1.466 0 .81.665 1.466 1.485 1.466h16.028c.82 0 1.485-.657 1.485-1.466 0-.809-.665-1.466-1.485-1.466zm-22.639.009h-2.644a9.647 9.647 0 00-.421-.011h-8.114a7.3 7.3 0 00-.421.01h-3.196c-.741 0-1.341.657-1.341 1.466 0 .81.6 1.466 1.341 1.466h4.032c.28 0 .516-.006.719-.011h.581c.652.035.587.292.587 1.607l.008 12.775c0 .81.603 1.463 1.341 1.463h.003a.968.968 0 00.127-.008.917.917 0 00.128.008h.003c.741 0 1.341-.654 1.341-1.463l.008-12.774c0-1.316-.065-1.57.586-1.608h.581c.204.005.44.01.72.01h4.031c.741 0 1.341-.656 1.341-1.465.003-.809-.6-1.465-1.341-1.465zm-21.235-.009c-.82 0-1.485.558-1.485 1.246v8.148c0 3.564-2.937 6.46-6.545 6.46s-6.546-2.9-6.546-6.46v-7.93c0-.81-.665-1.466-1.485-1.466-.82 0-1.485.656-1.485 1.465v7.928c0 5.18 4.268 9.391 9.516 9.391 5.245 0 9.51-4.209 9.515-9.383V21.8c-.003-.686-.665-1.244-1.485-1.244zm-20.236 6.22c0-3.43-2.826-6.219-6.301-6.219H69.279c-.614 0-1.143.37-1.368.895a1.42 1.42 0 00-.117.57v15.851c0 .81.665 1.466 1.485 1.466.82 0 1.485-.657 1.485-1.466V23.484h9.727c1.838 0 3.334 1.477 3.334 3.29 0 1.814-1.496 3.29-3.334 3.29h-6.35c-.82 0-1.485.657-1.485 1.466 0 .81.665 1.466 1.485 1.466h4.74c2.726 0 4.944 2.189 4.944 4.879 0 .809.665 1.465 1.485 1.465.82 0 1.485-.656 1.485-1.465 0-2.377-1.084-4.507-2.786-5.94 1.678-1.12 2.783-3.014 2.783-5.16z" fill="#000"/><path fill-rule="evenodd" clip-rule="evenodd" d="M30.398 0c16.777 0 30.397 13.442 30.397 30s-13.62 30-30.398 30C13.62 60 0 46.558 0 30S13.62 0 30.398 0z" fill="#000"/><path fill-rule="evenodd" clip-rule="evenodd" d="M30.398 23.154c3.827 0 6.936 3.068 6.936 6.846s-3.109 6.846-6.936 6.846c-3.828 0-6.937-3.068-6.937-6.846s3.109-6.846 6.937-6.846z" fill="#F01F01"/><path fill-rule="evenodd" clip-rule="evenodd" d="M7.67 18.034c1.153-2.154 2.657-4.147 4.517-5.974 4.9-4.826 10.951-7.24 18.153-7.24 7.2 0 13.268 2.414 18.203 7.242 2.797 2.738 4.803 5.841 6.014 9.305.898 2.637 1.349 5.485 1.349 8.542 0 4.927-1.17 9.319-3.508 13.171a25.54 25.54 0 01-3.855 4.807c-4.935 4.863-11 7.293-18.203 7.293-2 0-3.616-.622-4.85-1.867-1.233-1.246-1.852-2.854-1.852-4.82 0-1.967.616-3.559 1.851-4.772 1.233-1.214 2.85-1.82 4.851-1.82.793 0 1.556-.067 2.295-.198 2.405-.41 4.512-1.522 6.317-3.333 2.335-2.342 3.502-5.163 3.502-8.461s-1.165-6.104-3.494-8.41c-2.33-2.31-5.158-3.465-8.484-3.465H7.67v0zm10.668 34.37c-2.18-1.147-4.2-2.642-6.059-4.485-4.925-4.882-7.387-10.886-7.387-18.01 0-1.98.633-3.58 1.892-4.799 1.263-1.219 2.889-1.83 4.881-1.83 1.993 0 3.603.611 4.833 1.83 1.186 1.18 1.8 2.71 1.84 4.595l-.002.217v22.482h.002z" fill="#fff" stroke="#fff" stroke-width=".24" stroke-miterlimit="10" stroke-linejoin="round"/></svg>